HIERARCHY
ROOT Hips
{
	OFFSET 0.000000 0.000000 0.000000
	CHANNELS 6 Xposition Yposition Zposition Xrotation Yrotation Zrotation
	JOINT Chest
	{
		OFFSET 0.000000 0.009282 11.569106
		CHANNELS 3 Xrotation Yrotation Zrotation
		JOINT Chest2
		{
			OFFSET 0.000000 -0.016863 9.269641
			CHANNELS 3 Xrotation Yrotation Zrotation
			JOINT Chest3
			{
				OFFSET 0.000000 0.000000 8.374491
				CHANNELS 3 Xrotation Yrotation Zrotation
				JOINT Chest4
				{
					OFFSET 0.000000 0.000000 8.374493
					CHANNELS 3 Xrotation Yrotation Zrotation
					JOINT Neck
					{
						OFFSET 0.000000 -0.000001 12.152554
						CHANNELS 3 Xrotation Yrotation Zrotation
						JOINT Head
						{
							OFFSET 0.000000 -0.040100 7.802319
							CHANNELS 3 Xrotation Yrotation Zrotation
							End Site
							{
								OFFSET 0.000000 -0.020946 14.853096
							}
						}
					}
					JOINT RightCollar
					{
						OFFSET -2.894404 0.000000 6.791374
						CHANNELS 3 Xrotation Yrotation Zrotation
						JOINT RightShoulder
						{
							OFFSET -13.574684 0.000000 0.000000
							CHANNELS 3 Xrotation Yrotation Zrotation
							JOINT RightElbow
							{
								OFFSET -23.923903 0.000000 0.000000
								CHANNELS 3 Xrotation Yrotation Zrotation
								JOINT RightWrist
								{
									OFFSET -19.846718 -0.012765 0.000000
									CHANNELS 3 Xrotation Yrotation Zrotation
									End Site
									{
										OFFSET -14.973145 0.000000 0.000000
									}
								}
							}
						}
					}
					JOINT LeftCollar
					{
						OFFSET 2.894404 0.000000 6.791374
						CHANNELS 3 Xrotation Yrotation Zrotation
						JOINT LeftShoulder
						{
							OFFSET 13.574684 0.000000 0.000000
							CHANNELS 3 Xrotation Yrotation Zrotation
							JOINT LeftElbow
							{
								OFFSET 23.923903 0.000000 0.000000
								CHANNELS 3 Xrotation Yrotation Zrotation
								JOINT LeftWrist
								{
									OFFSET 19.846718 -0.012765 0.000000
									CHANNELS 3 Xrotation Yrotation Zrotation
									End Site
									{
										OFFSET 14.973145 0.000000 0.000000
									}
								}
							}
						}
					}
				}
			}
		}
	}
	JOINT RightHip
	{
		OFFSET -9.469263 -0.004642 0.045487
		CHANNELS 3 Xrotation Yrotation Zrotation
		JOINT RightKnee
		{
			OFFSET 0.000000 -0.002666 -40.478676
			CHANNELS 3 Xrotation Yrotation Zrotation
			JOINT RightAnkle
			{
				OFFSET 0.000000 -0.049110 -35.224068
				CHANNELS 3 Xrotation Yrotation Zrotation
				JOINT RightToe
				{
					OFFSET 0.000000 -12.539530 -6.151390
					CHANNELS 3 Xrotation Yrotation Zrotation
					End Site
					{
						OFFSET 0.000000 -5.044995 -1.291870
					}
				}
			}
		}
	}
	JOINT LeftHip
	{
		OFFSET 9.469263 -0.004642 0.045487
		CHANNELS 3 Xrotation Yrotation Zrotation
		JOINT LeftKnee
		{
			OFFSET 0.000000 -0.002666 -40.478676
			CHANNELS 3 Xrotation Yrotation Zrotation
			JOINT LeftAnkle
			{
				OFFSET 0.000000 -0.049110 -35.224068
				CHANNELS 3 Xrotation Yrotation Zrotation
				JOINT LeftToe
				{
					OFFSET 0.000000 -12.539530 -6.151390
					CHANNELS 3 Xrotation Yrotation Zrotation
					End Site
					{
						OFFSET 0.000000 -5.044995 -1.291870
					}
				}
			}
		}
	}
}
MOTION
Frames: 7
Frame Time: 0.016667
-4.348316 15.475561 31.790981 3.310160 18.670722 -114.173039 9.522734 0.944147 0.234376 4.238643 0.412302 0.117046 4.238640 0.412302 0.117035 3.179048 0.308433 0.090644 15.681459 0.332394 -0.897959 -7.055383 0.933687 -1.512845 -6.084388 -5.719865 -3.772305 33.834390 -37.101205 13.553252 61.132987 6.623214 65.207775 -58.619900 35.187570 95.707179 -6.325789 8.569763 -2.836260 26.622399 38.548211 -7.297651 62.347681 5.309189 -64.289190 -37.860097 -35.318505 -97.736899 -41.700012 9.034986 -14.362148 146.767132 7.584457 -0.650688 20.629278 -11.536460 10.714565 0.012734 0.090452 -0.122503 -89.866520 4.388262 5.873862 99.459343 7.860237 0.758826 8.859722 -11.368498 3.837773 0.059753 0.052101 -0.002660 
-4.330560 15.474541 31.776350 3.276307 18.673262 -114.130924 9.556761 0.943647 0.234578 4.253294 0.412913 0.118330 4.253292 0.412913 0.118328 3.190036 0.308879 0.091626 15.665457 0.357288 -0.896156 -7.084963 0.978518 -1.500345 -6.118118 -5.760210 -3.725125 33.737474 -37.173055 13.372810 61.084322 6.752816 65.182155 -58.615461 35.173142 95.710047 -6.307458 8.572429 -2.859327 26.540385 38.567029 -7.257908 62.348835 5.293482 -64.279607 -37.848718 -35.341981 -97.728266 -41.723949 9.063450 -14.368707 146.796311 7.591778 -0.642575 20.635465 -11.586073 10.765398 0.024538 0.098521 -0.133258 -89.883951 4.398054 5.879121 99.453435 7.885655 0.772023 8.852784 -11.390870 3.805267 0.061550 0.051144 -0.002771 
-4.314295 15.491812 31.758945 3.233298 18.669308 -114.091972 9.573058 0.946945 0.235802 4.263080 0.413118 0.117658 4.263077 0.413118 0.117651 3.197374 0.309036 0.091119 15.658202 0.381999 -0.891150 -7.098376 1.021750 -1.482119 -6.122596 -5.785157 -3.684515 33.623652 -37.257999 13.204306 61.046947 6.854254 65.151679 -58.603665 35.161831 95.707015 -6.299189 8.584280 -2.866946 26.513934 38.591696 -7.245425 62.318223 5.307879 -64.256842 -37.818675 -35.367317 -97.724072 -41.760893 9.084956 -14.357187 146.820968 7.588981 -0.628192 20.654518 -11.639479 10.830507 0.026505 0.110414 -0.151191 -89.910165 4.404480 5.901583 99.440103 7.893271 0.790013 8.853804 -11.400912 3.785366 0.060777 0.045811 -0.003137 
-4.293211 15.492070 31.742571 3.203367 18.671318 -114.045779 9.593731 0.940050 0.225949 4.269762 0.413640 0.114607 4.269762 0.413640 0.114597 3.202387 0.309447 0.088845 15.655120 0.403705 -0.882848 -7.104104 1.058254 -1.459041 -6.182065 -5.820940 -3.642811 33.559274 -37.322776 13.020993 61.014858 6.931424 65.129323 -58.587225 35.157122 95.698566 -6.284796 8.581731 -2.857740 26.481608 38.635293 -7.232656 62.306311 5.305179 -64.235504 -37.803991 -35.380855 -97.723048 -41.780595 9.112023 -14.355755 146.839532 7.587369 -0.600341 20.663501 -11.692206 10.885197 0.035393 0.118024 -0.161831 -89.929255 4.428207 5.909415 99.428956 7.899194 0.809149 8.858212 -11.395570 3.759386 0.057922 0.036707 -0.002899 
-4.275539 15.513811 31.726492 3.169399 18.654771 -114.003015 9.596460 0.939559 0.221192 4.272118 0.414359 0.112012 4.272119 0.414360 0.112009 3.204150 0.310004 0.086912 15.654911 0.418559 -0.873844 -7.104539 1.081992 -1.437207 -6.272964 -5.862810 -3.622091 33.532776 -37.363956 12.851376 60.989040 6.985600 65.124454 -58.556127 35.156712 95.680903 -6.254379 8.559891 -2.854474 26.395246 38.688381 -7.182487 62.333563 5.274114 -64.229200 -37.804195 -35.388385 -97.722016 -41.811044 9.125619 -14.367429 146.852018 7.580484 -0.583150 20.669102 -11.731809 10.934790 0.035515 0.122250 -0.170019 -89.970906 4.449012 5.891361 99.419516 7.915552 0.819959 8.869520 -11.375002 3.764601 0.053683 0.027589 -0.002183 
-4.251730 15.515277 31.710302 3.144216 18.634274 -113.965900 9.600030 0.936748 0.214102 4.270599 0.416240 0.111111 4.270602 0.416240 0.111112 3.203011 0.311422 0.086248 15.658955 0.427874 -0.865267 -7.097103 1.095753 -1.418216 -6.357532 -5.907254 -3.604744 33.501490 -37.394702 12.694887 60.973809 7.038132 65.124665 -58.525453 35.152825 95.660440 -6.225020 8.540761 -2.856235 26.279850 38.721831 -7.099811 62.382378 5.249486 -64.241870 -37.795852 -35.391971 -97.710938 -41.850341 9.133309 -14.378230 146.869722 7.573776 -0.561127 20.659628 -11.763630 10.963459 0.042410 0.116774 -0.163326 -90.015917 4.478449 5.858857 99.404039 7.928315 0.829102 8.889101 -11.345600 3.749377 0.050797 0.023380 -0.001641 
-4.231536 15.536726 31.692802 3.098259 18.614402 -113.937616 9.588485 0.947086 0.212995 4.266689 0.420038 0.110088 4.266689 0.420038 0.110081 3.200077 0.314278 0.085506 15.670061 0.434587 -0.857788 -7.076570 1.105119 -1.402246 -6.438202 -5.940786 -3.584483 33.486437 -37.431656 12.559822 60.971705 7.083634 65.111859 -58.489417 35.146173 95.636698 -6.250115 8.557214 -2.843987 26.205226 38.721336 -6.991295 62.432082 5.235649 -64.263693 -37.767401 -35.388344 -97.697031 -41.907701 9.141081 -14.368978 146.888546 7.557236 -0.547757 20.661380 -11.782729 10.986236 0.035251 0.109868 -0.155700 -90.074991 4.526259 5.864934 99.379382 7.913162 0.867196 8.917346 -11.310508 3.747292 0.047750 0.027745 -0.003385 
